<svg width="96" height="97" xmlns="http://www.w3.org/2000/svg" xmlns:xlink="http://www.w3.org/1999/xlink" overflow="hidden"><defs><clipPath id="clip0"><rect x="364" y="460" width="96" height="97"/></clipPath><clipPath id="clip1"><rect x="364" y="461" width="96" height="96"/></clipPath><clipPath id="clip2"><rect x="364" y="461" width="96" height="96"/></clipPath><clipPath id="clip3"><rect x="364" y="461" width="96" height="96"/></clipPath></defs><g clip-path="url(#clip0)" transform="translate(-364 -460)"><g clip-path="url(#clip1)"><g clip-path="url(#clip2)"><g clip-path="url(#clip3)"><path d="M412 477C419.732 477 426 483.268 426 491 426 498.732 419.732 505 412 505 404.268 505 398 498.732 398 491 398.008 483.271 404.271 477.008 412 477M412 475C403.163 475 396 482.163 396 491 396 499.837 403.163 507 412 507 420.837 507 428 499.837 428 491 428 482.163 420.837 475 412 475Z" stroke="#9A9A9A" stroke-width="3" stroke-linecap="butt" stroke-linejoin="miter" stroke-miterlimit="4" stroke-opacity="1" fill="none" fill-rule="nonzero"/><path d="M444 543 442 543 442 527.5C441.952 525.376 440.952 523.386 439.275 522.081 434.889 518.716 429.868 516.273 424.513 514.9 420.459 513.652 416.242 513.012 412 513 407.759 513.074 403.548 513.713 399.476 514.9 394.177 516.452 389.178 518.886 384.688 522.1 383.028 523.406 382.042 525.388 382 527.5L382 543 380 543 380 527.5C380.05 524.769 381.326 522.205 383.476 520.519 388.168 517.151 393.395 514.601 398.937 512.977 403.184 511.74 407.577 511.075 412 511 416.432 511.011 420.838 511.678 425.075 512.979 430.685 514.424 435.943 516.991 440.533 520.525 442.678 522.211 443.952 524.772 444 527.5Z" stroke="#9A9A9A" stroke-width="3" stroke-linecap="butt" stroke-linejoin="miter" stroke-miterlimit="4" stroke-opacity="1" fill="none" fill-rule="nonzero"/></g></g></g></g></svg>