<svg width="98" height="97" xmlns="http://www.w3.org/2000/svg" xmlns:xlink="http://www.w3.org/1999/xlink" overflow="hidden"><defs><clipPath id="clip0"><rect x="482" y="464" width="98" height="97"/></clipPath><clipPath id="clip1"><rect x="483" y="465" width="96" height="96"/></clipPath><clipPath id="clip2"><rect x="483" y="465" width="96" height="96"/></clipPath><clipPath id="clip3"><rect x="483" y="465" width="96" height="96"/></clipPath></defs><g clip-path="url(#clip0)" transform="translate(-482 -464)"><g clip-path="url(#clip1)"><g clip-path="url(#clip2)"><g clip-path="url(#clip3)"><path d="M533 534.2 533 539.5 529 539.5 529 534.2C526.7 533.4 525 531.2 525 528.5 525 525.2 527.7 522.5 531 522.5 534.3 522.5 537 525.2 537 528.5 537 531.1 535.3 533.3 533 534.2ZM516 497.5C516 489.2 522.7 482.5 531 482.5 539.3 482.5 546 489.2 546 497.5L546 508.6 531 507.5 516 508.6 516 497.5ZM552 509 552 497.5C552 485.9 542.6 476.5 531 476.5 519.4 476.5 510 485.9 510 497.5L510 509 503 509.5 503 547.5 531 549.5 559 547.5 559 509.5 552 509Z" fill="#9A9A9A" fill-rule="nonzero" fill-opacity="1"/></g></g></g></g></svg>