<svg width="98" height="96" xmlns="http://www.w3.org/2000/svg" xmlns:xlink="http://www.w3.org/1999/xlink" overflow="hidden"><defs><clipPath id="clip0"><rect x="506" y="4" width="98" height="96"/></clipPath><clipPath id="clip1"><rect x="507" y="4" width="96" height="96"/></clipPath><clipPath id="clip2"><rect x="507" y="4" width="96" height="96"/></clipPath><clipPath id="clip3"><rect x="507" y="4" width="96" height="96"/></clipPath></defs><g clip-path="url(#clip0)" transform="translate(-506 -4)"><g clip-path="url(#clip1)"><g clip-path="url(#clip2)"><g clip-path="url(#clip3)"><path d="M568 38 588 38 588 18 586 18 586 33.688C586 33.693 585.996 33.697 585.991 33.697 585.986 33.697 585.982 33.693 585.982 33.688 575.867 16.571 553.791 10.8946 536.674 21.0095 519.557 31.1244 513.881 53.2002 523.996 70.3173 534.111 87.4343 556.187 93.1107 573.303 82.9958 575.601 81.6382 577.74 80.0294 579.682 78.199L578.309 76.744C564.645 89.6309 543.122 89.0013 530.235 75.3377 517.348 61.6741 517.978 40.1507 531.641 27.2637 545.305 14.3768 566.828 15.0064 579.715 28.67 581.784 30.8632 583.552 33.3218 584.972 35.981 584.975 35.9858 584.973 35.9919 584.968 35.9947 584.967 35.9956 584.965 35.9961 584.963 35.996L568 35.996Z" stroke="#FC9E9E" stroke-width="6" stroke-linecap="butt" stroke-linejoin="miter" stroke-miterlimit="4" stroke-opacity="1" fill="#000000" fill-rule="nonzero" fill-opacity="1"/></g></g></g></g></svg>